<mxfile host="65bd71144e">
    <diagram id="zXqm2ZVMuFEUtQ2ZwrQj" name="Page-1">
        <mxGraphModel dx="898" dy="320" grid="1" gridSize="10" guides="1" tooltips="1" connect="1" arrows="1" fold="1" page="1" pageScale="1" pageWidth="850" pageHeight="1100" math="0" shadow="0">
            <root>
                <mxCell id="0"/>
                <mxCell id="1" parent="0"/>
                <mxCell id="2" value="&lt;font style=&quot;font-size: 20px&quot;&gt;Logo&lt;/font&gt;" style="rounded=1;whiteSpace=wrap;html=1;" vertex="1" parent="1">
                    <mxGeometry x="30" y="42" width="80" height="50" as="geometry"/>
                </mxCell>
                <mxCell id="3" value="Layer 1" style="strokeWidth=1;shadow=0;dashed=0;align=center;html=1;shape=mxgraph.mockup.navigation.anchor;fontSize=17;fontColor=#666666;fontStyle=1;" vertex="1" parent="1">
                    <mxGeometry x="40" y="114" width="60" height="30" as="geometry"/>
                </mxCell>
                <mxCell id="4" value="&gt;" style="strokeWidth=1;shadow=0;dashed=0;align=center;html=1;shape=mxgraph.mockup.navigation.anchor;fontSize=24;fontColor=#aaaaaa;fontStyle=1;" vertex="1" parent="1">
                    <mxGeometry x="90" y="114" width="20" height="30" as="geometry"/>
                </mxCell>
                <mxCell id="5" value="Layer 2" style="strokeWidth=1;shadow=0;dashed=0;align=center;html=1;shape=mxgraph.mockup.navigation.anchor;fontSize=17;fontColor=#666666;fontStyle=1;" vertex="1" parent="1">
                    <mxGeometry x="110" y="114" width="60" height="30" as="geometry"/>
                </mxCell>
                <mxCell id="6" value="&gt;" style="strokeWidth=1;shadow=0;dashed=0;align=center;html=1;shape=mxgraph.mockup.navigation.anchor;fontSize=24;fontColor=#aaaaaa;fontStyle=1;" vertex="1" parent="1">
                    <mxGeometry x="170" y="114" width="20" height="30" as="geometry"/>
                </mxCell>
                <mxCell id="7" value="Layer 3" style="strokeWidth=1;shadow=0;dashed=0;align=center;html=1;shape=mxgraph.mockup.navigation.anchor;fontSize=17;fontColor=#666666;fontStyle=1;" vertex="1" parent="1">
                    <mxGeometry x="190" y="114" width="60" height="30" as="geometry"/>
                </mxCell>
                <mxCell id="8" value="&gt;" style="strokeWidth=1;shadow=0;dashed=0;align=center;html=1;shape=mxgraph.mockup.navigation.anchor;fontSize=24;fontColor=#aaaaaa;fontStyle=1;" vertex="1" parent="1">
                    <mxGeometry x="250" y="114" width="20" height="30" as="geometry"/>
                </mxCell>
                <mxCell id="9" value="Layer 4" style="strokeWidth=1;shadow=0;dashed=0;align=center;html=1;shape=mxgraph.mockup.navigation.anchor;fontSize=17;fontColor=#008cff;fontStyle=1;" vertex="1" parent="1">
                    <mxGeometry x="270" y="114" width="60" height="30" as="geometry"/>
                </mxCell>
                <mxCell id="11" value="Next" style="strokeWidth=1;shadow=0;dashed=0;align=center;html=1;shape=mxgraph.mockup.buttons.button;strokeColor=#666666;fontColor=#ffffff;mainText=;buttonStyle=round;fontSize=17;fontStyle=1;fillColor=#008cff;whiteSpace=wrap;" vertex="1" parent="1">
                    <mxGeometry x="330" y="525" width="150" height="50" as="geometry"/>
                </mxCell>
                <mxCell id="12" value="Search" style="strokeWidth=1;shadow=0;dashed=0;align=center;html=1;shape=mxgraph.mockup.forms.searchBox;strokeColor=#999999;mainText=;strokeColor2=#008cff;fontColor=#666666;fontSize=17;align=left;spacingLeft=3;" vertex="1" parent="1">
                    <mxGeometry x="660" y="52" width="150" height="30" as="geometry"/>
                </mxCell>
                <mxCell id="13" value="" style="strokeWidth=1;shadow=0;dashed=0;align=center;html=1;shape=mxgraph.mockup.forms.rrect;rSize=0;strokeColor=#999999;fontSize=24;fontColor=#FFFFFF;" vertex="1" parent="1">
                    <mxGeometry x="110" y="52" width="380" height="30" as="geometry"/>
                </mxCell>
                <mxCell id="14" value="Home" style="strokeColor=inherit;fillColor=inherit;gradientColor=inherit;strokeWidth=1;shadow=0;dashed=0;align=center;html=1;shape=mxgraph.mockup.forms.rrect;rSize=0;fontSize=17;fontColor=#666666;" vertex="1" parent="13">
                    <mxGeometry width="110" height="30" as="geometry"/>
                </mxCell>
                <mxCell id="20" value="Salary" style="strokeColor=inherit;fillColor=inherit;gradientColor=inherit;strokeWidth=1;shadow=0;dashed=0;align=center;html=1;shape=mxgraph.mockup.forms.rrect;rSize=0;fontSize=17;fontColor=#666666;" vertex="1" parent="13">
                    <mxGeometry x="230" width="150" height="30" as="geometry"/>
                </mxCell>
                <mxCell id="21" value="Department" style="strokeColor=inherit;fillColor=inherit;gradientColor=inherit;strokeWidth=1;shadow=0;dashed=0;align=center;html=1;shape=mxgraph.mockup.forms.rrect;rSize=0;fontSize=17;fontColor=#666666;" vertex="1" parent="13">
                    <mxGeometry x="110" width="120" height="30" as="geometry"/>
                </mxCell>
                <mxCell id="24" value="&lt;font style=&quot;font-size: 14px&quot;&gt;Thông tin nhân viên 1&lt;/font&gt;" style="rounded=1;whiteSpace=wrap;html=1;fontSize=24;fontColor=#FFFFFF;" vertex="1" parent="1">
                    <mxGeometry x="55" y="185" width="170" height="120" as="geometry"/>
                </mxCell>
                <mxCell id="26" value="&lt;font style=&quot;font-size: 14px&quot;&gt;Thông tin nhân viên 1&lt;/font&gt;" style="rounded=1;whiteSpace=wrap;html=1;fontSize=24;fontColor=#FFFFFF;" vertex="1" parent="1">
                    <mxGeometry x="320" y="185" width="170" height="120" as="geometry"/>
                </mxCell>
                <mxCell id="27" value="&lt;font style=&quot;font-size: 14px&quot;&gt;Thông tin nhân viên 1&lt;/font&gt;" style="rounded=1;whiteSpace=wrap;html=1;fontSize=24;fontColor=#FFFFFF;" vertex="1" parent="1">
                    <mxGeometry x="610" y="185" width="170" height="120" as="geometry"/>
                </mxCell>
                <mxCell id="28" value="&lt;font style=&quot;font-size: 14px&quot;&gt;Thông tin nhân viên 1&lt;/font&gt;" style="rounded=1;whiteSpace=wrap;html=1;fontSize=24;fontColor=#FFFFFF;" vertex="1" parent="1">
                    <mxGeometry x="610" y="335" width="170" height="120" as="geometry"/>
                </mxCell>
                <mxCell id="29" value="&lt;font style=&quot;font-size: 14px&quot;&gt;Thông tin nhân viên 1&lt;/font&gt;" style="rounded=1;whiteSpace=wrap;html=1;fontSize=24;fontColor=#FFFFFF;" vertex="1" parent="1">
                    <mxGeometry x="320" y="335" width="170" height="120" as="geometry"/>
                </mxCell>
                <mxCell id="31" value="&lt;font style=&quot;font-size: 14px&quot;&gt;Thông tin nhân viên 1&lt;/font&gt;" style="rounded=1;whiteSpace=wrap;html=1;fontSize=24;fontColor=#FFFFFF;" vertex="1" parent="1">
                    <mxGeometry x="55" y="335" width="170" height="120" as="geometry"/>
                </mxCell>
            </root>
        </mxGraphModel>
    </diagram>
</mxfile>